<svg width="24" height="25" viewBox="0 0 24 25" fill="none" xmlns="http://www.w3.org/2000/svg">
<path d="M7.19766 19.3149C5.87815 19.3149 4.81055 20.3945 4.81055 21.7141C4.81055 23.0336 5.87815 24.1132 7.19766 24.1132C8.51717 24.1132 9.59677 23.0336 9.59677 21.7141C9.59677 20.3945 8.51717 19.3149 7.19766 19.3149Z" fill="#F14A1C"/>
<path d="M0 0.12207V2.52118H2.39911L6.71751 11.6258L5.09811 14.5527C4.22243 16.1601 5.374 18.1154 7.19733 18.1154H21.592V15.7163H7.19733L8.51684 13.3172H17.4535C18.3532 13.3172 19.1449 12.8254 19.5527 12.0816L23.8471 4.29652C24.291 3.50481 23.7152 2.52118 22.8035 2.52118H5.05012L3.92254 0.12207H0Z" fill="#F14A1C"/>
<path d="M19.1918 19.3149C17.8723 19.3149 16.8047 20.3945 16.8047 21.7141C16.8047 23.0336 17.8723 24.1132 19.1918 24.1132C20.5113 24.1132 21.5909 23.0336 21.5909 21.7141C21.5909 20.3945 20.5113 19.3149 19.1918 19.3149Z" fill="#F14A1C"/>
</svg>
